<?xml version="1.0" encoding="UTF-8"?>
<svg id="Layer_2" data-name="Layer 2" xmlns="http://www.w3.org/2000/svg" xmlns:xlink="http://www.w3.org/1999/xlink" viewBox="-100 0 2220 1080">
  <defs>
    <style>
      .cls-2 {
        fill: #ffa6b6;
        fill-rule: evenodd;
      }
    </style>
  </defs>
  <g id="turntable-sample-file-target-art-start">
    <g>
      <path class="cls-2" d="M65.93,289.07c29.5-42.24,84.68-78.82,135.11-54.29,40.37,19.64,77.74,54.6,103.8,91.02,0,0,61.82-88.76,147.24-47.14,126.17,61.48,140.57,250.56,140.57,250.56,0,0,44.83-5.13,91.22,15.29,78.64,34.62,186.44,162.94,164.38,259.12-1.81,7.87-4.48,15.53-8.11,22.9-4.41,8.95-9.35,16.61-14.73,23.13l.65.77s-1.65,1.54-4.79,3.93c-19.86,21.07-45.01,27.94-71.53,25.67-50.89,2.27-122.47-25.29-199.8-150.03,0,0-112.49,157.74-400.79-21.41-.26-.16-.51-.32-.77-.48-1.58-.98-3.15-1.97-4.71-2.97-280.2-178.76-77.72-416.07-77.72-416.07h0Z"/>
      <path class="cls-2" d="M2044.86,236.68c-7.54-27.67-18.57-54.91-34.85-78.97-53.61-79.21-175.27-115.44-253.58-134.87-91.21-22.65-183.09-17.44-259.37,23.3-170.82,91.22-86.25,299.62-86.25,299.62,0,0-74.28-32.45-110.36-3.59-34.32,27.45-12.58,89.23-12.58,89.23,0,0-45.02-15.61-83.3,6.1-39.34,22.33-27.04,54.74-26.74,55.31.17-.08-189.52-37.5-277.88,15.75-145.09,87.44-89.6,275.16-89.6,275.16,0,0-64.98-9.72-107.03,23.51-71.56,56.56,5.61,177.27,88.8,182.82,34.31,2.28,175.36,60.79,204.61,46.52,113.24-55.25,272.94-58.3,393.8-97.06,64.48-20.67-30.62-170.07,34.92-188.03,133.38-36.56,256.89-97.51,374.82-166.63,77.57-45.46,150.61-99.75,211.45-167.88,24.13-27.02,42.2-62.17,43.97-102.88.85-19.67-2.1-40.09-6.58-60.21-1.28-5.74-2.69-11.47-4.25-17.2v-.02Z"/>
    </g>
  </g>
</svg>
