<?xml version="1.0" encoding="UTF-8"?>
<svg id="Layer_3" data-name="Layer 3" xmlns="http://www.w3.org/2000/svg" viewBox="0 0 901.28 306.78">
  <defs>
    <style>
      .cls-1 {
        fill: #1e1c18;
      }

      .cls-2 {
        fill: #ff8098;
      }

      .cls-3 {
        fill: #eae6df;
      }
    </style>
  </defs>
  <g id="Design">
    <g>
      <g>
        <g>
          <path class="cls-1" d="M266.39,127.07c-9.6,0-17.87-2.08-24.8-6.23-6.93-4.16-11.79-10.98-14.57-20.45-2.79-9.48-2.91-21.5-.37-36.05,1.77-10.13,4.41-18.83,7.91-26.07,3.49-7.24,7.6-13.23,12.31-17.95,4.71-4.72,9.83-8.46,15.35-11.2,5.52-2.74,11.25-4.94,17.2-6.61,5.94-1.67,11.74-2.51,17.42-2.51,3.22,0,6.3.45,9.25,1.33,2.95.88,5.6,1.89,7.94,3.02,2.34,1.14,4.06,2.9,5.14,5.29,1.08,2.39,1.25,5.67.53,9.82-.48,2.78-1.5,5.14-3.05,7.09-1.55,1.96-3.52,3.65-5.91,5.1-2.22,1.2-4.75,2.23-7.58,3.12-2.83.88-5.89,1.67-9.19,2.36-4.15.76-8.12,2.31-11.9,4.68-3.78,2.36-7.02,5.46-9.73,9.31-2.7,3.84-4.51,8.41-5.44,13.69-1.26,7.24-.69,12.85,1.75,16.82,2.43,3.97,6.78,5.95,13.03,5.95,1.29,0,2.46.11,3.49.33,1.03.22,1.65-.26,1.86-1.46.21-1.2-.16-2.21-1.11-3.02-.95-.82-2.59-1.7-4.93-2.65-2.43-.95-4.33-2.74-5.69-5.39-1.37-2.65-1.57-6.74-.6-12.28.78-4.47,2.49-8.07,5.14-10.81,2.64-2.75,5.84-4.99,9.59-6.76,3.75-1.76,7.52-2.65,11.31-2.65,6.7,0,12.29,1.5,16.77,4.49,4.48,2.99,7.65,7.13,9.51,12.42,1.87,5.29,2.05,12.22.56,20.78-1.74,9.95-4.52,18.08-8.34,24.37-3.82,6.3-8.46,11.17-13.9,14.59-5.44,3.44-11.44,5.54-17.98,6.33-6.55.79-13.53,1.18-20.94,1.18Z"/>
          <path class="cls-1" d="M374.83,125.08c-11.43,0-20.41-4.08-26.93-12.24-6.52-8.15-10.41-18.88-11.66-32.16-.89-10.21-.31-21.22,1.76-33.07,2.06-11.77,5.44-20.88,10.13-27.32,4.7-6.44,11.4-9.66,20.11-9.66,5.8,0,9.81,2.01,12.01,6.02,2.2,4.02,2.51,10.53.94,19.53-.78,4.47-1.42,8.83-1.92,13.08s-.64,7.95-.43,11.11c.19,2.71.72,4.93,1.58,6.68.85,1.75,2.19,2.62,4.03,2.62,2.01,0,3.84-.85,5.47-2.57,1.64-1.71,3.11-3.89,4.43-6.54,1.59-3.21,2.91-6.91,3.98-11.1s1.95-8.3,2.66-12.33c1.62-9.25,4.53-15.99,8.72-20.19,4.2-4.21,9.48-6.31,15.87-6.31,5,0,8.62,1.27,10.86,3.81,2.24,2.54,3.41,6.38,3.51,11.55.11,5.16-.52,11.59-1.86,19.27-2.28,13.04-5.77,24.97-10.48,35.8-5.93,13.48-13.44,24.18-22.53,32.12-9.09,7.93-19.17,11.9-30.24,11.9Z"/>
          <path class="cls-1" d="M454.05,125.18c-4.51,0-7.76-1.22-9.75-3.64-1.99-2.42-3.47-6.31-4.46-11.67-.93-5.16-1.23-11.15-.91-17.95.32-6.8,1.1-13.76,2.34-20.88.74-4.22,1.79-8.85,3.16-13.89,1.38-5.04,2.96-9.93,4.75-14.69,1.79-4.76,3.65-8.8,5.57-12.14,3.26-5.6,6.64-9.87,10.14-12.8,3.5-2.92,7.07-4.94,10.7-6.04,3.63-1.1,7.23-1.66,10.8-1.66,3.12,0,6.01.45,8.64,1.33,2.64.88,4.85,2.04,6.66,3.49,2.2,1.7,4.03,4,5.49,6.9,1.46,2.9,2.32,6.77,2.59,11.62.15,1.95.39,3.68.73,5.2.34,1.51,1.02,2.27,2.05,2.27s1.96-.74,2.8-2.22c.84-1.48,1.77-3.51,2.81-6.1,1.16-2.83,2.69-5.96,4.59-9.4,1.89-3.43,3.85-6.06,5.87-7.89,2.38-2.13,4.98-3.54,7.8-4.2,2.82-.66,6.48-.99,10.99-.99,3.3,0,6.56.68,9.76,2.03,3.2,1.36,6.04,3.42,8.53,6.19,2.48,2.77,4.33,6.04,5.55,9.83,1.8,5.54,2.82,11.76,3.07,18.65.25,6.9-.25,13.9-1.5,21.02-1.17,6.68-2.52,13.29-4.07,19.84-1.55,6.56-3.58,12.53-6.09,17.95-2.69,5.92-5.82,10.19-9.41,12.8-3.58,2.61-7.94,3.92-13.07,3.92-3.13,0-5.43-.79-6.92-2.36-1.49-1.58-2.42-3.43-2.81-5.58-.23-1.25-.4-3.01-.53-5.24-.12-2.23-.18-4.27-.17-6.09.02-1.89,0-4.02-.06-6.38-.06-2.36-.09-4.26-.11-5.71,0-2.08-.22-3.78-.68-5.1-.46-1.33-1.27-1.99-2.43-1.99-1.43,0-2.72.92-3.86,2.75-1.15,1.83-2.22,4.09-3.23,6.8-.5,1.33-1.27,3.23-2.31,5.72-1.04,2.48-2.16,4.89-3.37,7.22-1.68,3.21-3.65,5.7-5.93,7.46-2.27,1.77-5.24,2.65-8.9,2.65-3.88,0-6.61-.85-8.19-2.55-1.58-1.7-2.92-4.38-4.02-8.03-.41-1.45-.76-4.09-1.02-7.93-.27-3.84-.52-7.65-.75-11.44-.12-2.39-.31-4.12-.56-5.2s-.88-1.61-1.87-1.61-1.9.92-2.76,2.75c-.85,1.83-1.71,4.32-2.58,7.46-.46,1.64-.9,3.45-1.32,5.43-.41,1.98-.91,4.62-1.48,7.89-.6,3.47-1.27,6.17-1.99,8.12-.72,1.95-1.78,3.97-3.17,6.05-1.8,2.64-4.02,4.64-6.64,6-2.63,1.35-5.46,2.03-8.49,2.03Z"/>
          <path class="cls-1" d="M589.81,125.18c-4.51,0-7.76-1.22-9.74-3.64-1.99-2.42-3.48-6.31-4.46-11.67-.93-5.16-1.23-11.15-.91-17.95.31-6.8,1.1-13.76,2.34-20.88.74-4.22,1.79-8.85,3.16-13.89,1.37-5.04,2.95-9.93,4.74-14.69,1.79-4.76,3.65-8.8,5.57-12.14,3.26-5.6,6.64-9.87,10.14-12.8,3.5-2.92,7.07-4.94,10.7-6.04,3.63-1.1,7.23-1.66,10.8-1.66,3.12,0,6.01.45,8.64,1.33,2.64.88,4.85,2.04,6.66,3.49,2.2,1.7,4.03,4,5.49,6.9,1.46,2.9,2.32,6.77,2.59,11.62.15,1.95.4,3.68.74,5.2.34,1.51,1.02,2.27,2.05,2.27s1.96-.74,2.8-2.22c.84-1.48,1.77-3.51,2.81-6.1,1.17-2.83,2.69-5.96,4.59-9.4,1.89-3.43,3.85-6.06,5.87-7.89,2.38-2.13,4.98-3.54,7.8-4.2,2.82-.66,6.48-.99,10.99-.99,3.3,0,6.56.68,9.76,2.03,3.2,1.36,6.04,3.42,8.53,6.19,2.48,2.77,4.33,6.04,5.55,9.83,1.8,5.54,2.82,11.76,3.07,18.65s-.25,13.9-1.49,21.02c-1.17,6.68-2.53,13.29-4.07,19.84-1.55,6.56-3.58,12.53-6.09,17.95-2.69,5.92-5.82,10.19-9.41,12.8-3.58,2.61-7.94,3.92-13.07,3.92-3.13,0-5.43-.79-6.92-2.36-1.49-1.58-2.43-3.43-2.81-5.58-.23-1.25-.4-3.01-.53-5.24-.12-2.23-.18-4.27-.17-6.09.02-1.89,0-4.02-.06-6.38-.06-2.36-.09-4.26-.11-5.71,0-2.08-.22-3.78-.68-5.1-.46-1.33-1.27-1.99-2.43-1.99-1.43,0-2.72.92-3.86,2.75-1.15,1.83-2.22,4.09-3.23,6.8-.5,1.33-1.27,3.23-2.31,5.72-1.03,2.48-2.16,4.89-3.37,7.22-1.67,3.21-3.65,5.7-5.93,7.46-2.27,1.77-5.24,2.65-8.9,2.65-3.89,0-6.62-.85-8.2-2.55-1.58-1.7-2.92-4.38-4.02-8.03-.42-1.45-.76-4.09-1.02-7.93-.27-3.84-.52-7.65-.75-11.44-.12-2.39-.31-4.12-.56-5.2s-.88-1.61-1.87-1.61-1.9.92-2.76,2.75c-.85,1.83-1.71,4.32-2.58,7.46-.46,1.64-.9,3.45-1.32,5.43-.41,1.98-.9,4.62-1.48,7.89-.6,3.47-1.27,6.17-1.99,8.12-.72,1.95-1.78,3.97-3.17,6.05-1.8,2.64-4.02,4.64-6.64,6-2.63,1.35-5.46,2.03-8.49,2.03Z"/>
          <path class="cls-1" d="M753.82,122.63c-5.27,0-9.2-1.87-11.78-5.62-2.58-3.75-3.44-9.37-2.58-16.86.21-1.7.45-3.4.73-5.1.27-1.7.51-3.37.71-5,.57-5.04.93-9.51,1.07-13.42.15-3.9-.55-6.58-2.08-8.03-1.91-1.83-3.8-3.32-5.65-4.49-1.85-1.16-3.64-2.44-5.36-3.82-4.27-3.46-7.15-7.2-8.66-11.19-1.51-4-1.74-9.02-.68-15.07.96-5.48,2.71-10.15,5.23-14.03,2.53-3.87,5.54-6.84,9.03-8.93,3.48-2.08,7.13-3.11,10.93-3.11,2.9,0,5.38.63,7.44,1.89,2.06,1.26,3.78,3.66,5.18,7.19.72,1.76,1.47,3.57,2.27,5.43.79,1.85,1.61,3.57,2.45,5.14,1.14,2.14,2.46,3.84,3.93,5.1,1.47,1.26,3.15,1.89,5.03,1.89,1.43,0,2.87-.58,4.33-1.75,1.45-1.17,2.91-2.6,4.37-4.3,1.74-2.02,3.44-4.17,5.12-6.47,1.67-2.3,3.28-4.14,4.81-5.52,2.45-2.27,4.86-4.03,7.22-5.29,2.36-1.26,4.84-1.89,7.43-1.89,3.75,0,6.91,1.34,9.48,4.01,2.57,2.68,4.37,6.17,5.4,10.49,1.03,4.32,1.11,8.99.23,14.03-.46,2.65-1.28,5.58-2.44,8.79-1.16,3.21-3.16,6.39-5.99,9.54-3.44,3.84-6.58,6.81-9.43,8.93-2.85,2.11-6.12,4.26-9.81,6.47-3.47,2.02-5.9,3.54-7.26,4.58-1.37,1.04-2.72,2.59-4.07,4.68-.79,1.2-1.81,3.76-3.05,7.7-1.25,3.93-2.6,8.58-4.08,13.93-1.65,6.11-4.18,10.99-7.61,14.65-3.43,3.65-7.38,5.48-11.84,5.48Z"/>
        </g>
        <g>
          <path class="cls-1" d="M354.17,253.41c-8.12,0-15.07-1.8-20.82-5.39s-9.81-9.18-12.14-16.77c-2.33-7.59-2.53-16.96-.58-28.11,2.41-13.79,6.54-25.77,12.38-35.95,5.84-10.17,12.98-18.18,21.41-24.04,8.44-5.86,17.64-8.79,27.59-8.79,4.2,0,8.02.92,11.47,2.74,3.45,1.83,6.1,4.35,7.92,7.56,1.83,3.21,2.31,7.31,1.44,12.28-.97,5.54-2.62,9.68-4.95,12.42-2.33,2.74-5.15,4.11-8.45,4.11s-5.78-.2-7.56-.61c-1.78-.41-3.61-.61-5.48-.61-2.41,0-4.58,1.9-6.49,5.71-1.91,3.81-3.39,8.64-4.41,14.5-.85,4.85-1.01,8.8-.5,11.86.51,3.05,2.62,4.58,6.33,4.58,1.65,0,3.82-.65,6.5-1.94,2.68-1.29,5.58-1.94,8.71-1.94,5.36,0,8.69,1.86,10.01,5.58,1.31,3.71,1.47,8.41.48,14.08-.96,5.48-2.8,10.11-5.54,13.89-2.74,3.78-6.09,6.8-10.06,9.07-3.97,2.27-8.28,3.79-12.92,4.58-4.65.78-9.43,1.18-14.34,1.18Z"/>
          <path class="cls-1" d="M420.26,253.88c-8.39-2.08-13.68-6.62-15.87-13.61-2.19-6.99-2.25-16.47-.15-28.44.73-4.15,1.75-8.85,3.06-14.08,1.32-5.22,2.74-10.44,4.27-15.64,1.54-5.2,2.99-9.78,4.35-13.74,3.7-10.71,8.17-19.67,13.4-26.88,5.23-7.21,11.09-10.82,17.56-10.82,4.51,0,7.59,1.45,9.25,4.35,1.66,2.9,2.46,6.44,2.4,10.63-.06,4.19-.58,9.06-1.55,14.6-.79,4.54-1.51,8.93-2.17,13.18-.66,4.25-1.09,8.17-1.32,11.76-.22,3.59.16,6.52,1.14,8.78.99,2.27,2.63,3.59,4.93,3.97,4,.63,7.7,1.39,11.13,2.27,3.42.88,6.15,1.73,8.19,2.55.96.38,2.11.98,3.44,1.8,1.33.82,2.4,1.86,3.21,3.12.84,1.32,1.37,2.97,1.58,4.96.21,1.98.04,4.58-.52,7.79-.98,5.61-2.77,10.39-5.36,14.36-2.59,3.97-5.62,7.24-9.09,9.83-3.46,2.58-6.98,4.59-10.53,6.05-3.09,1.32-6.79,2.11-11.1,2.36-4.31.25-8.63.38-12.96.38h-9.41c-3.01,0-5.64.15-7.89.47Z"/>
          <path class="cls-1" d="M531.79,257.28c-8.57,0-15.97-2.08-22.18-6.23-6.22-4.16-10.65-10.27-13.31-18.33-2.65-8.06-2.96-17.92-.93-29.57,1.9-10.9,5-20.59,9.27-29.1,4.28-8.5,9.43-15.69,15.46-21.58,6.03-5.89,12.65-10.38,19.87-13.46,7.21-3.08,14.71-4.63,22.48-4.63,6.83,0,13.08,1.28,18.76,3.83,5.67,2.55,10.44,6.28,14.32,11.2,3.88,4.91,6.54,10.91,8,18,1.46,7.08,1.41,15.16-.18,24.23-1.75,10.02-5.01,19.07-9.77,27.16-4.77,8.1-10.51,15-17.22,20.74-6.72,5.73-13.92,10.12-21.62,13.18-7.7,3.05-15.35,4.58-22.94,4.58ZM548.93,202.11c4.29,0,7.61-1.46,9.98-4.39,2.36-2.93,3.8-5.87,4.32-8.83.65-3.71.19-7.04-1.37-9.97-1.57-2.93-3.87-4.39-6.9-4.39-2.73,0-5.45,1.15-8.17,3.45-2.73,2.3-4.42,5.37-5.1,9.22-.38,2.2-.36,4.47.09,6.8.44,2.33,1.27,4.27,2.5,5.81,1.22,1.54,2.78,2.32,4.65,2.32Z"/>
          <path class="cls-1" d="M649.29,251.42c-11.43,0-20.41-4.08-26.93-12.23-6.52-8.16-10.41-18.88-11.66-32.17-.89-10.2-.31-21.22,1.76-33.06,2.06-11.78,5.44-20.89,10.13-27.33,4.7-6.44,11.4-9.66,20.11-9.66,5.8,0,9.81,2.01,12.01,6.03,2.2,4.01,2.51,10.53.94,19.53-.78,4.47-1.42,8.83-1.91,13.08-.5,4.25-.64,7.95-.44,11.1.2,2.71.73,4.94,1.58,6.68.85,1.75,2.19,2.62,4.03,2.62,2.01,0,3.84-.86,5.47-2.57,1.64-1.72,3.11-3.9,4.42-6.55,1.59-3.21,2.92-6.91,3.98-11.1,1.07-4.19,1.95-8.3,2.66-12.33,1.62-9.26,4.53-15.99,8.72-20.19,4.2-4.2,9.48-6.31,15.87-6.31,5,0,8.62,1.27,10.86,3.81,2.24,2.54,3.41,6.38,3.51,11.55.11,5.16-.52,11.59-1.86,19.27-2.28,13.04-5.77,24.97-10.48,35.8-5.93,13.48-13.44,24.19-22.53,32.12-9.09,7.94-19.17,11.9-30.24,11.9Z"/>
          <path class="cls-1" d="M731.52,251.52c-5.36,0-9.44-1.06-12.24-3.17-2.8-2.11-4.63-5.05-5.49-8.83-.86-3.78-1.02-8.69-.5-14.74.25-2.96.63-6.17,1.15-9.63.52-3.46,1.13-7.21,1.83-11.24,1.53-8.75,3.13-16.88,4.79-24.37,1.67-7.49,3.57-14.2,5.72-20.12,3.32-9.01,7.47-16.04,12.47-21.12,4.99-5.07,11.46-7.61,19.41-7.61,6.79,0,13.07,1.26,18.86,3.78,5.79,2.52,10.93,5.94,15.43,10.25,4.49,4.32,8.2,9.21,11.13,14.69,2.93,5.48,4.94,11.24,6.02,17.29,1.09,6.05,1.11,12.03.08,17.95-1.39,7.94-4.47,15.29-9.24,22.06-4.78,6.77-10.77,12.7-17.97,17.76-7.21,5.07-15.22,9.18-24.06,12.33-8.83,3.15-17.96,4.73-27.38,4.73ZM757.56,200.6c3.84,0,7.06-1.31,9.66-3.92,2.6-2.61,4.07-4.87,4.4-6.76.38-2.2-.24-4.56-1.88-7.08-1.64-2.52-4.17-3.78-7.61-3.78-1.96,0-3.46,1.26-4.48,3.78-.59,1.32-1.11,3.31-1.58,5.95-.46,2.65-.72,4.88-.77,6.71-.1,3.41.65,5.1,2.26,5.1Z"/>
          <path class="cls-1" d="M841.22,251.52c-4.06,0-8.13-.22-12.21-.66-4.08-.44-7.72-1.4-10.95-2.88-3.22-1.48-5.64-3.67-7.25-6.56-1.62-2.89-2.01-6.71-1.19-11.43.89-5.1,2.41-9.07,4.56-11.9,2.14-2.83,4.67-4.72,7.55-5.67,2.89-.94,5.92-1.41,9.09-1.41h5.83c3.03,0,5.55-.41,7.55-1.23,1.99-.82,3.21-2.49,3.65-5.01.29-1.64-.35-3-1.92-4.11-1.57-1.1-3.68-2.25-6.33-3.45-3.35-1.57-6.32-3.78-8.93-6.61-2.61-2.83-4.51-6.27-5.7-10.3-1.19-4.03-1.34-8.63-.44-13.8,1.16-6.61,3.6-12.28,7.33-17,3.73-4.73,8.18-8.55,13.36-11.48,5.18-2.93,10.56-4.88,16.16-5.86,5.6-.98,10.94-1.47,16.03-1.47,4.2,0,8.27.22,12.21.66,3.94.44,7.02,1.86,9.23,4.25,2.22,2.39,2.92,5.92,2.11,10.58-.78,4.47-2.16,8.08-4.13,10.81s-4.31,4.95-6.98,6.62c-2.68,1.67-5.36,2.5-8.04,2.5h-5.63c-1.2,0-2.21.05-3,.14-.8.1-1.31.8-1.54,2.13-.37,2.14.33,3.93,2.11,5.39,1.78,1.45,4.11,2.99,7,4.63,2.79,1.64,5.54,4,8.24,7.09,2.7,3.08,4.76,6.94,6.18,11.57,1.42,4.63,1.58,10.1.48,16.39-1.17,6.68-3.51,12.44-7.04,17.29-3.53,4.85-7.84,8.83-12.94,11.95-5.1,3.12-10.61,5.37-16.52,6.75-5.91,1.39-11.88,2.08-17.91,2.08Z"/>
        </g>
      </g>
      <g>
        <path class="cls-1" d="M317.27,171.45c-5.29-16.1-22.5-27.69-39.45-27.21,3.86-21.75-16.74-38.93-36.85-40.41,3.37-12.56,2.23-26.38-4.47-37.69,17.14-25.78-17.14-52.17-37.28-29.44-12.52-1.24-25.11-.96-36.85,3.94-29.05-25.74-62.72,17.14-33.58,40.79-1.11,7.69-.4,15.79,2.09,23.18.65,1.95,5.2,10.6,4.83,11.33-16.66,13.54-27.96,32.8-31.58,54.06-12.65-5.92-19.41-16.56-33.78-6.28-11.33,8.1-30.89,35.05-11.69,47.85,3.22,2.17,11.48,4.77,18.46.48,8.27,6.17,18,11.07,28.53,11.45.69.59-5.38,6.03-6.04,6.83-15.1,18.22-12.87,47.44,8.43,59.73,14.01,8.08,30.26,6.78,44.63.32,12.52,11.74,29.68,18.59,47,15.78,13.95-2.25,26.28-10.61,35.49-20.9,26.19,13.54,57.21,3.5,72.66-20.89,2.21-3.5,3.68-7.32,5.85-10.81,19.11.8,37.55-9.53,44.67-27.53,11.44-28.81-11.74-55.46-41.08-54.57ZM88.35,210.78c-2.26-1.28-9.05-6.8-10.74-6.98-3.88-.4-4.44,2.19-11.85,1.52-4.82-.41-7.13-5.46-7.04-8.83.21-9.41,10.24-24.24,18.65-28.29,2.25-1.09,3.57-1.54,6.11-1.02,5.67,1.15,15.53,9.15,21.9,11.42,6.67,2.36,5.7-4.9,6.58-9.12,3.55-16.92,12.35-33.78,25.5-45.2,2.41-2.08,8.86-4.98,8-8.44-7.76-10.84-11.5-23.44-8.71-36.75-3.78-4.42-8.45-6.86-10.46-12.78-6.07-17.66,14.06-33.97,28.81-22.25,1.67,1.33,3.79,5.01,5.37,5.27,2.06.35,5.05-1.73,7.2-2.38,11.65-3.55,24.04-4.53,35.95-1.41,2.84.73,8.67,3.83,10.86,3.83,2.88,0,4.85-3.18,3.01-5.59l-10.33-5.07c13.65-8.06,30.33,2.34,25.09,18.79-.82,2.65-3.66,5.91-3.38,8.19.24,1.76,2.51,4.94,3.27,6.87,3.81,9.88,4.05,20.45.78,30.54-1.01,3.14-7.64,14.3,1.15,12.26,2.85-.67,3.4-4.09,4.37-4.73,2.32-1.43,14.98,4.01,17.71,5.57,12.8,7.31,20.56,23.2,10.35,36.13-14.77,18.7-38.58-5.95-18.41-20.92,1.56-1.15,5.57-2.43,5.94-3.69,1.41-4.66-6.11-3.45-8.47-1.67-.04-.63-.35-1.06-.82-1.45-13.17-10.12-33.82-6.61-47.43.91-6.93-3.38-14.38-6.15-22.2-6.52-3.69-.17-7.13.52-5.72,5.2.72,2.34,3.9,1.24,5.2,1.39,11.13,1.17,28.16,6.07,29.55,19.41,2.28,22.25-24.66,21.86-39.21,15.49-3.46-1.52-9.38-6.19-11.77-6.93-4.22-1.28-6.43,3.27-3.77,6.3,2.28,2.58,9.97,6,13.34,7.11-1.39,3.21-2.25,6.52-2.08,10.03-18.15,4.66-32.24,19.76-37.3,37.56l-.63.53c-11.4,3.88-24.11,1.53-34.35-4.3ZM348.53,229.33c-6.18,9.71-18.13,16.19-29.55,16.88-6.8.43-2.9-2.71-6.03-4.55-5.09-3.03-5.63,6.78-6.98,10.25-6.84,17.66-24.48,31.13-43.57,32.17-8.12.45-15.4-2.04-22.96-4.53-.65-.74,3.96-6.94-.13-8.71-.69-.31-1.24-.52-2.01-.31-1.13.31-6.27,8.36-7.69,10.03-7.97,9.29-20.41,17.47-32.89,18.61-12.78,1.19-28.29-3.94-37.55-12.81,2.93-1.29,12.16-12.21,6.2-13.82-2.26-.59-7.15,5.11-9.28,6.7-15.55,11.59-40.46,13.45-53.18-3.27-13.17-17.33-2.47-45.51,17.39-52.18,2.34-.78,7.19-.98,8.58-2.54,1.16-1.32,3.22-9.6,4.44-12.21,5.22-11.33,16.27-21.54,28.36-24.92.48,2.97,1.43,7.87,5.31,7.63,4.94-.31,1.45-9.53,1.23-12.91-.08-1.45-.23-8.6.5-9.14,6.22.97,12.06,2.29,18.46,1.8,17.16-1.34,29.61-14.99,23.38-32.43-1.3-3.6-3.55-5.35-5.46-8.21-.35-.52-.8-.35.02-.99,2.13-1.74,12.37-3.62,15.36-3.82,4.14-.26,16.38.59,19.45,3.31,1.15,1.02-1.88,3.46-2.73,4.83-9.99,16.23,3.32,35.27,21.94,31.02,7.22-1.65,13.5-6.95,16.23-13.82,15.3-.72,28.84,8.4,34.99,22.16,1.04,2.34,2.49,8.86,4.44,9.71,3.93,1.67,3.88-4.13,5.24-4.61,25.99,1.01,43.33,27.32,28.47,50.69Z"/>
        <path class="cls-3" d="M320.06,178.64c-1.36.48-1.32,6.28-5.24,4.61-1.95-.84-3.4-7.36-4.44-9.71-6.15-13.75-19.69-22.88-34.99-22.16-2.73,6.87-9.01,12.17-16.23,13.82-18.63,4.25-31.93-14.79-21.94-31.02.85-1.37,3.88-3.81,2.73-4.83-3.08-2.73-15.31-3.57-19.45-3.31-2.99.2-13.24,2.08-15.36,3.82-.82.64-.36.47-.02.99,1.9,2.86,4.16,4.62,5.46,8.21,6.23,17.44-6.22,31.09-23.38,32.43-6.39.49-12.24-.82-18.46-1.8-.73.54-.59,7.69-.5,9.14.22,3.38,3.71,12.61-1.23,12.91-3.88.24-4.83-4.66-5.31-7.63-12.09,3.38-23.14,13.59-28.36,24.92-1.21,2.61-3.27,10.89-4.44,12.21-1.39,1.56-6.24,1.76-8.58,2.54-19.87,6.67-30.56,34.86-17.39,52.18,12.72,16.72,37.63,14.86,53.18,3.27,2.13-1.58,7.02-7.28,9.28-6.7,5.95,1.61-3.27,12.53-6.2,13.82,9.25,8.86,24.76,13.99,37.55,12.81,12.48-1.15,24.91-9.32,32.89-18.61,1.43-1.67,6.56-9.72,7.69-10.03.78-.21,1.32,0,2.01.31,4.09,1.77-.52,7.97.13,8.71,7.56,2.49,14.84,4.98,22.96,4.53,19.09-1.04,36.72-14.51,43.57-32.17,1.34-3.47,1.89-13.28,6.98-10.25,3.13,1.84-.78,4.98,6.03,4.55,11.41-.69,23.37-7.17,29.55-16.88,14.86-23.37-2.47-49.68-28.47-50.69ZM270.15,193.32c.3-.31.64-.54,1.04-.67.39-.2.8-.29,1.25-.27.45-.02.86.07,1.24.27.4.13.75.35,1.04.67.44.36.86.73,1.29,1.1.45.33.91.63,1.41.87.23.07.47.14.72.2.31.02.62.02.93,0,0,0,0,0,0,0,.59-.11,1.15-.28,1.71-.49.17-.08.34-.16.49-.26.13-.12.26-.25.38-.39.35-.5.66-1.04.92-1.59.24-.61.43-1.25.55-1.89v-.03c.02-.17.02-.34.02-.51,0,0,0-.02,0-.02-.06-.43-.03-.86.08-1.29.11-.26.22-.51.33-.77.4-.75,1.15-1.23,1.92-1.48.43-.13.86-.16,1.29-.06.43.02.83.15,1.2.39.37.2.68.48.9.82.29.31.48.68.58,1.1.09.63.19,1.2.14,1.83-.04.64-.13,1.29-.27,1.93-.22,1.07-.64,2.09-1.1,3.08-.3.68-.67,1.34-1.12,1.95-.35.47-.7.96-1.12,1.38-.4.4-.86.77-1.34,1.07-.55.36-1.24.6-1.83.85-.43.17-.87.34-1.32.45-.68.19-1.37.27-2.06.35-.36.04-.73.06-1.09.05-.61-.02-1.21-.12-1.81-.23-.32-.06-.63-.15-.94-.26-.8-.29-1.59-.63-2.31-1.1-1.12-.73-2.09-1.64-3.13-2.48-.4-.4-.68-.87-.82-1.42-.04-.29-.08-.58-.12-.86-.04-.86.38-1.67.94-2.28ZM244.53,202.73c.15-.54.43-1.02.82-1.42.22-.17.44-.34.65-.5.37-.24.78-.37,1.2-.39.43-.1.86-.07,1.29.06.41.1.78.3,1.1.58.35.23.63.53.82.91.04.07.08.13.13.19.17.19.35.36.54.53.25.16.5.31.77.44,0,0,.02,0,.03,0,.26.09.53.16.8.22h.02c.26.02.53.02.78,0,.23-.05.45-.11.67-.18h0c.24-.12.47-.26.7-.41.21-.19.4-.39.59-.59.02,0,.02-.02.02-.02.16-.24.31-.48.43-.73.09-.26.17-.52.22-.78,0-.03,0-.06,0-.09,0-.58.15-1.12.44-1.62.16-.21.34-.44.5-.65.4-.4.87-.68,1.43-.83.28-.03.57-.07.85-.12.45-.02.87.08,1.25.28.4.13.75.35,1.04.67.31.29.54.63.67,1.04.2.38.3.8.27,1.24,0,.16-.02.31-.03.46-.05.43-.1.85-.18,1.27-.06.31-.14.6-.25.89-.28.81-.63,1.62-1.13,2.33-.45.64-.94,1.29-1.53,1.81-.4.35-.82.68-1.26.98-.22.16-.45.3-.7.42-.46.25-.96.45-1.45.63-.25.09-.5.16-.77.22-.53.12-1.07.19-1.62.23-.27.02-.54.03-.81.02-.54-.02-1.08-.1-1.6-.19-.26-.04-.52-.1-.78-.17-.39-.12-.76-.27-1.13-.43-.38-.16-.75-.31-1.1-.51-.23-.13-.45-.27-.67-.43-.42-.31-.85-.63-1.23-.98-.2-.19-.38-.39-.55-.59-.33-.41-.67-.83-.95-1.29-.29-.5-.44-1.04-.44-1.62.03-.29.07-.57.12-.86ZM300.49,219.08c-4.98,7.44-11.94,13.47-20.13,17.1-8.73,3.88-18.38,5.42-27.9,4.63-9.06-.75-18.18-3.27-25.96-8.09-7.31-4.54-13.59-11.29-15.64-19.84-.42-1.76.54-3.41,2.25-3.97,1.62-.52,3.58.61,3.97,2.25.22.92.49,1.84.82,2.73.09.25.21.49.29.73,0,0,0,.02.02.03.2.44.4.87.63,1.3.43.83.92,1.64,1.43,2.42.25.38.52.77.79,1.13t0,.02s.03.03.04.05t0,.02l.02.02s.03.04.04.06c.02.02.03.04.05.06.13.16.26.33.4.49.61.73,1.25,1.43,1.93,2.09.68.68,1.39,1.32,2.12,1.94.21.17.41.35.62.51.06.04.17.13.28.21,0,0,0,0,.02.02.32.23.64.49.96.71,1.59,1.13,3.27,2.15,5,3.06.9.47,1.81.91,2.73,1.32.12.06.26.12.38.17.02,0,.04,0,.06.02,0,0,.02,0,.02,0,.02,0,.04.02.07.02.02,0,.05.02.07.03.02,0,.04.02.07.02.02,0,.03,0,.05.02h.03s.04.02.07.03c.43.18.87.35,1.31.51,2,.76,4.05,1.39,6.12,1.9,1.1.28,2.19.52,3.3.73.56.11,1.11.21,1.67.31.26.04.52.08.78.12.06,0,.2.02.33.05h.02s.08,0,.12.02c.1.02.14.02.15.02.04,0,.07.02.08.02.12,0,.23.02.34.04.26.02.53.06.78.08.53.06,1.05.11,1.58.15,1.12.08,2.24.14,3.37.16,2.21.05,4.42-.03,6.62-.24.55-.06,1.1-.12,1.65-.19h.02s.08-.02.12-.02c.07-.02.1-.02.12-.02-.02,0-.03.02-.06.02.24-.03.49-.07.73-.11,1.11-.18,2.2-.39,3.29-.63,2.11-.47,4.18-1.08,6.21-1.81.56-.21,1.11-.41,1.67-.64.06-.02.11-.04.16-.06.03-.02.07-.03.1-.04.02,0,.04-.02.06-.02.02-.02.05-.02.07-.03.16-.07.32-.14.49-.21.98-.45,1.95-.92,2.9-1.43,1.84-.98,3.6-2.09,5.27-3.32.22-.16.44-.34.66-.49,0,0-.02.02-.03.02.04-.03.08-.06.11-.08.4-.32.8-.65,1.19-.99.76-.64,1.48-1.32,2.19-2.01.71-.7,1.39-1.42,2.06-2.16.36-.41.72-.83,1.07-1.25.15-.18.3-.37.45-.56.02-.02.03-.04.07-.07.02-.05.07-.1.12-.16.02-.03.03-.05.05-.07,0,0,.02-.02.02-.02h0s.02-.02.02-.03h0s0-.02.02-.03t.02-.02c1.07-1.49,2.13-3,3.05-4.61.51-.89.99-1.8,1.43-2.71.22-.46.44-.93.64-1.39.03-.07.06-.13.09-.2,0,0,0,0,0,0,.07-.18.14-.35.21-.54.73-1.86,1.34-3.77,1.79-5.72.22-.94.41-1.9.55-2.86h0s.02-.16.07-.49c0-.02,0-.02,0-.04.02-.15.03-.3.05-.45.05-.47.09-.94.12-1.41.13-2,.1-4.02-.1-6.01-.18-1.8,1.62-3.15,3.22-3.22.8-.03,1.72.39,2.28.95.64.64.86,1.4.95,2.28.1,1.02.16,2.04.17,3.06.14,8.72-2.72,17.43-7.55,24.64Z"/>
        <path class="cls-2" d="M256.13,116.2c-2.73-1.56-15.38-7-17.7-5.57-.98.63-1.52,4.05-4.38,4.72-8.8,2.04-2.17-9.12-1.15-12.26,3.27-10.1,3.03-20.67-.78-30.55-.76-1.93-3.03-5.11-3.27-6.87-.28-2.27,2.56-5.55,3.38-8.19,5.24-16.44-11.44-26.84-25.09-18.78l10.33,5.07c1.84,2.4-.13,5.59-3.01,5.59-2.19,0-8.02-3.1-10.85-3.83-11.92-3.12-24.31-2.14-35.96,1.41-2.15.65-5.13,2.73-7.19,2.38-1.58-.26-3.7-3.94-5.37-5.26-14.75-11.72-34.88,4.59-28.81,22.25,2.02,5.91,6.69,8.36,10.46,12.78-2.79,13.3.95,25.91,8.71,36.74.87,3.47-5.59,6.37-7.99,8.45-13.15,11.42-21.95,28.27-25.5,45.19-.89,4.22.09,11.48-6.59,9.12-6.37-2.27-16.23-10.27-21.9-11.42-2.53-.52-3.86-.06-6.11,1.02-8.41,4.05-18.44,18.89-18.65,28.29-.09,3.38,2.23,8.43,7.04,8.84,7.41.67,7.97-1.93,11.85-1.52,1.69.17,8.49,5.7,10.75,6.98,10.25,5.83,22.96,8.17,34.36,4.29l.63-.52c5.07-17.81,19.15-32.91,37.3-37.57-.17-3.51.69-6.82,2.08-10.03-3.38-1.1-11.07-4.53-13.34-7.11-2.66-3.03-.46-7.58,3.77-6.3,2.38.74,8.3,5.42,11.76,6.93,14.56,6.37,41.49,6.76,39.21-15.49-1.39-13.34-18.41-18.24-29.55-19.41-1.3-.15-4.48.95-5.2-1.39-1.41-4.68,2.04-5.37,5.72-5.2,7.82.37,15.27,3.14,22.21,6.52,13.61-7.52,34.25-11.03,47.42-.91.48.39.78.82.82,1.45,2.36-1.78,9.88-2.99,8.47,1.67-.37,1.26-4.38,2.53-5.94,3.68-20.17,14.97,3.64,39.62,18.41,20.93,10.2-12.93,2.45-28.81-10.36-36.14ZM144.8,61.56c-3.1,3.7-4.59,6.41-6.37,4.94-1.78-1.49-.72-5.7,2.36-9.38,3.1-3.7,7.04-5.48,8.82-4.01,1.78,1.49-1.73,4.77-4.81,8.45ZM188.8,76.01c-3.79,4.38-8.21-4.25-10.55-4.05-3.16.95-1.04,7.39-5.55,7.08-6.41-.41-4.22-13.19,3.62-14.49,6.2-1.04,16.51,6.78,12.48,11.46ZM201.17,87.36c-4.29.32-7.95-2.12-8.19-5.48-.26-3.36,4.03-2.82,8.3-3.14,4.29-.32,6.91-1.39,7.17,1.95.26,3.36-3.01,6.35-7.28,6.67ZM221.06,73.33c-4.38,2.49-5.72-4.85-8.6-4.61-1.56.26-1.3,2.27-1.99,3.62-2.34,4.42-7,2.49-6.89-2.32.09-3.75,3.18-8.02,6.95-8.71,2.71-.5,5.46.15,7.69,1.67,2.77,1.91,6.95,7.99,2.84,10.36Z"/>
        <path class="cls-1" d="M77.24,240.33c-.01,1.61-1.87,3.88-3.7,3.62l-43.24-16.18c-5.26-2.43-2.97-8.64,2.41-7.36,29.1,12.09,6.79,1.71,35.83,13.93,2.47,1.04,8.72,2.96,8.7,5.98Z"/>
        <path class="cls-1" d="M33.09,187.11c1.88,1.33,3.31,3.11,1.8,5.27-1.84,2.64-3.48,2.18-5.97,1.32-6.97-2.41-15.76-5.81-24.89-8.67-5.13-1.78-5.72-7.79.3-8.09l28.76,10.17Z"/>
        <path class="cls-1" d="M61.23,144.55c3.94,2.82.59,8.38-3.83,6.73-7.68-3.45-12.77-4.52-19-7.33-4.21-1.9-5.04-5.13-2.3-6.76,1.43-.85,3.23-.84,4.75-.15l20.37,7.51Z"/>
        <path class="cls-1" d="M188.8,76.01c-3.79,4.38-8.21-4.25-10.55-4.05-3.16.95-1.04,7.39-5.55,7.08-6.41-.41-4.22-13.19,3.62-14.49,6.2-1.04,16.51,6.78,12.48,11.46Z"/>
        <path class="cls-1" d="M221.06,73.33c-4.38,2.49-5.72-4.85-8.6-4.61-1.56.26-1.3,2.27-1.99,3.62-2.34,4.42-7,2.49-6.89-2.32.09-3.75,3.18-8.02,6.95-8.71,2.71-.5,5.46.15,7.69,1.67,2.77,1.91,6.95,7.99,2.84,10.36Z"/>
        <path class="cls-1" d="M208.45,80.69c.26,3.36-3.01,6.35-7.28,6.67-4.29.32-7.95-2.12-8.19-5.48-.26-3.36,4.03-2.82,8.3-3.14,4.29-.32,6.91-1.39,7.17,1.95Z"/>
        <path class="cls-1" d="M144.8,61.56c-3.1,3.7-4.59,6.41-6.37,4.94-1.78-1.49-.72-5.7,2.36-9.38,3.1-3.7,7.04-5.48,8.82-4.01,1.78,1.49-1.73,4.77-4.81,8.45Z"/>
        <path class="cls-1" d="M308.04,194.44c.14,8.72-2.72,17.43-7.55,24.64-4.98,7.44-11.94,13.47-20.13,17.1-8.73,3.88-18.38,5.42-27.9,4.63-9.06-.75-18.18-3.27-25.96-8.09-7.31-4.54-13.59-11.29-15.64-19.84-.42-1.76.54-3.41,2.25-3.97,1.62-.52,3.58.61,3.97,2.25.22.92.49,1.84.82,2.73.09.25.21.49.29.73,0,0,0,.02.02.03.2.44.4.87.63,1.3.43.83.92,1.64,1.43,2.42.25.38.52.77.79,1.13t0,.02s.03.03.04.05t0,.02s0,.02.02.02c.02.02.03.04.04.06.02.02.03.04.05.06.13.16.26.33.4.49.61.73,1.25,1.43,1.93,2.09.68.68,1.39,1.32,2.12,1.94.21.17.41.35.62.51.06.04.17.13.28.21-.04-.02-.09-.06-.15-.1.06.04.11.07.17.12.32.23.64.49.96.71,1.59,1.13,3.27,2.15,5,3.06.9.47,1.81.91,2.73,1.32.12.06.26.12.38.17.02,0,.04,0,.06.02,0,0,.02,0,.02,0,.02.02.04.02.07.03.02,0,.04.02.07.02.02,0,.04.02.07.02.02,0,.03,0,.05.02h.03s.04.02.07.03c.43.18.87.35,1.31.51,2,.76,4.05,1.39,6.12,1.9,1.1.28,2.19.52,3.3.73.56.11,1.11.21,1.67.31.26.04.52.08.78.12.06,0,.2.02.33.05h.02s.08,0,.12.02c.1.02.14.02.15.02.04,0,.07.02.08.02.12,0,.23.02.34.04.26.02.53.06.78.08.53.06,1.05.11,1.58.15,1.12.08,2.24.14,3.37.16,2.21.05,4.42-.03,6.62-.24.55-.06,1.1-.12,1.65-.19h.02s.08-.02.12-.02c.07-.02.1-.02.12-.02-.02,0-.03.02-.06.02.24-.03.49-.07.73-.11,1.11-.18,2.2-.39,3.29-.63,2.11-.47,4.18-1.08,6.21-1.81.56-.21,1.11-.41,1.67-.64.06-.02.11-.04.16-.06.03-.02.07-.03.1-.04.02,0,.04-.02.06-.02.02-.02.05-.02.07-.03.16-.07.32-.14.49-.21.98-.45,1.95-.92,2.9-1.43,1.84-.98,3.6-2.09,5.27-3.32.22-.16.44-.34.66-.49,0,0-.02.02-.03.02.04-.03.08-.06.11-.08.4-.32.8-.65,1.19-.99.76-.64,1.48-1.32,2.19-2.01.71-.7,1.39-1.42,2.06-2.16.36-.41.72-.83,1.07-1.25.15-.18.3-.37.45-.56.02-.02.03-.04.07-.07.05-.07.08-.12.12-.16.02-.03.03-.05.05-.07,0,0,.02-.02.02-.02h0s.02-.02.02-.03h0s.02-.03.02-.03h0s0,0,.02-.02c1.07-1.49,2.13-3,3.05-4.61.51-.89.99-1.8,1.43-2.71.22-.46.44-.93.64-1.39.03-.07.06-.13.09-.2,0,0,0,0,0,0,.07-.18.14-.35.21-.54.73-1.86,1.34-3.77,1.79-5.72.22-.94.41-1.9.55-2.86,0,0,0-.02,0-.02t0,.02s.02-.15.07-.48c0-.02,0-.02,0-.04.02-.15.03-.3.05-.45.05-.47.09-.94.12-1.41.13-2,.1-4.02-.1-6.01-.18-1.8,1.62-3.15,3.22-3.22.8-.03,1.72.39,2.28.95.64.64.86,1.4.95,2.28.1,1.02.16,2.04.17,3.06Z"/>
        <path class="cls-1" d="M262.57,200.53c0,.16-.02.31-.03.46-.05.43-.1.85-.18,1.27-.06.31-.14.6-.25.89-.28.81-.63,1.62-1.13,2.33-.45.64-.94,1.29-1.53,1.81-.4.35-.82.68-1.26.98-.22.16-.45.3-.7.42-.46.25-.96.45-1.45.63-.25.09-.5.16-.77.22-.53.12-1.07.19-1.62.23-.27.02-.54.03-.81.02-.54-.02-1.08-.1-1.6-.19-.26-.04-.52-.1-.78-.17-.39-.12-.76-.27-1.13-.43-.38-.16-.75-.31-1.1-.51-.23-.13-.45-.27-.67-.43-.42-.31-.85-.63-1.23-.98-.2-.19-.38-.39-.55-.59-.33-.41-.67-.83-.95-1.29-.29-.5-.44-1.04-.44-1.62.03-.29.07-.57.12-.86.15-.54.43-1.02.82-1.42.22-.17.44-.34.65-.5.37-.24.78-.37,1.2-.39.43-.1.86-.07,1.29.06.41.1.78.3,1.1.58.35.23.63.53.82.91.04.07.08.13.13.19.17.19.35.36.54.53.25.16.5.31.77.44,0,0,.02,0,.03,0,.26.09.53.16.8.22h.02c.26.02.53.02.78,0,.23-.05.45-.11.67-.18h0c.24-.12.47-.26.7-.41.21-.19.4-.39.59-.59.02,0,.02-.02.02-.02.16-.24.31-.48.43-.73.09-.26.17-.52.22-.78,0-.03,0-.06,0-.09,0-.58.15-1.12.44-1.62.16-.21.34-.44.5-.65.4-.4.87-.68,1.43-.83.28-.03.57-.07.85-.12.45-.02.87.08,1.25.28.4.13.75.35,1.04.67.31.29.54.63.67,1.04.2.38.3.8.27,1.24Z"/>
        <path class="cls-1" d="M289.58,190.84c-.04.64-.13,1.29-.27,1.93-.22,1.07-.64,2.09-1.1,3.08-.3.68-.67,1.34-1.12,1.95-.35.47-.7.96-1.12,1.38-.4.4-.86.77-1.34,1.07-.55.36-1.24.6-1.83.85-.43.17-.87.34-1.32.45-.68.19-1.37.27-2.06.35-.36.04-.73.06-1.09.05-.61-.02-1.21-.12-1.81-.23-.32-.06-.63-.15-.94-.26-.8-.29-1.59-.63-2.31-1.1-1.12-.73-2.09-1.64-3.13-2.48-.4-.4-.68-.87-.82-1.42-.04-.29-.08-.58-.12-.86-.04-.86.38-1.67.94-2.28.3-.31.64-.54,1.04-.67.39-.2.8-.29,1.25-.27.45-.02.86.07,1.24.27.4.13.75.35,1.04.67.44.36.86.73,1.29,1.1.45.33.91.63,1.41.87.23.07.47.14.72.2.31.02.62.02.93,0,0,0,0,0,0,0,.59-.11,1.15-.28,1.71-.49.17-.08.34-.16.49-.26.13-.12.26-.25.38-.39.35-.5.66-1.04.92-1.59.24-.61.43-1.25.55-1.89v-.03c.02-.17.02-.34.02-.51,0,0,0-.02,0-.02,0-.13,0-.26-.02-.4,0,.03,0,.07.01.1-.01-.33,0-.66.09-.99.11-.26.22-.51.33-.77.4-.75,1.15-1.23,1.92-1.48.43-.13.86-.16,1.29-.06.43.02.83.15,1.2.39.37.2.68.48.9.82.29.31.48.68.58,1.1.09.63.19,1.2.14,1.83Z"/>
      </g>
    </g>
  </g>
</svg>